<svg width="217" height="45" viewBox="0 0 217 45" fill="none" xmlns="http://www.w3.org/2000/svg">
<path fill-rule="evenodd" clip-rule="evenodd" d="M47.783 0.529594C48.4525 0.847405 49 1.53711 49 2.06289C49 3.61013 36.3676 41.3716 35.3903 42.7455C34.8995 43.4357 34.1847 44 33.8021 44C33.4195 44 30.6469 41.8673 27.6403 39.2607L22.1746 34.5214H16.7315C10.1638 34.5214 9.98576 34.3491 9.98576 27.9935V23.6227L4.95167 19.1884C-0.00691509 14.8205 -0.84698 13.4667 0.70415 12.3432C1.26042 11.9401 34.6673 2.9115 46.3672 0.00213987C46.476 -0.0251807 47.1135 0.212341 47.783 0.529594Z" fill="black"/>
<path fill-rule="evenodd" clip-rule="evenodd" d="M28.1884 10.0312C21.2665 11.85 13.65 13.8611 11.2625 14.5001L6.92188 15.6615L14.8506 22.7504L32.5933 14.9255L14.9909 30.6337H23.7496L27.6825 34.0873C29.8453 35.9869 31.7419 37.4282 31.8973 37.2905C32.1276 37.087 36.0554 25.5259 41.4054 9.30695C42.0624 7.31533 42.0926 6.66689 41.5263 6.69142C41.1122 6.70927 35.1103 8.21245 28.1884 10.0312Z" fill="#6C63FF"/>
<path d="M57.1992 44V22.1818H60.4378V25.4773H60.6651C61.0628 24.3977 61.7825 23.5218 62.8242 22.8494C63.8658 22.1771 65.0401 21.8409 66.3469 21.8409C66.5931 21.8409 66.9009 21.8456 67.2702 21.8551C67.6395 21.8646 67.9189 21.8788 68.1083 21.8977V25.3068C67.9946 25.2784 67.7342 25.2358 67.327 25.179C66.9293 25.1127 66.5079 25.0795 66.0628 25.0795C65.0022 25.0795 64.0552 25.3021 63.2219 25.7472C62.398 26.1828 61.7446 26.7888 61.2617 27.5653C60.7882 28.3324 60.5514 29.2083 60.5514 30.1932V44H57.1992Z" fill="#6C63FF"/>
<path d="M80.5656 44.4545C78.4634 44.4545 76.6499 43.9905 75.1253 43.0625C73.6101 42.125 72.4406 40.8182 71.6168 39.142C70.8024 37.4564 70.3952 35.4962 70.3952 33.2614C70.3952 31.0265 70.8024 29.0568 71.6168 27.3523C72.4406 25.6383 73.5865 24.303 75.0543 23.3466C76.5315 22.3807 78.255 21.8977 80.2247 21.8977C81.3611 21.8977 82.4833 22.0871 83.5912 22.4659C84.6992 22.8447 85.7077 23.4602 86.6168 24.3125C87.5259 25.1553 88.2503 26.2727 88.7901 27.6648C89.3298 29.0568 89.5997 30.7708 89.5997 32.8068V34.2273H72.7815V31.3295H86.1906C86.1906 30.0985 85.9444 29 85.452 28.0341C84.969 27.0682 84.2778 26.3059 83.3781 25.7472C82.488 25.1884 81.4369 24.9091 80.2247 24.9091C78.8895 24.9091 77.7342 25.2405 76.7588 25.9034C75.7929 26.5568 75.0495 27.4091 74.5287 28.4602C74.0079 29.5114 73.7475 30.6383 73.7475 31.8409V33.7727C73.7475 35.4205 74.0315 36.8172 74.5997 37.9631C75.1774 39.0994 75.9776 39.9659 77.0003 40.5625C78.023 41.1496 79.2115 41.4432 80.5656 41.4432C81.4463 41.4432 82.2418 41.3201 82.952 41.0739C83.6717 40.8182 84.292 40.4394 84.8128 39.9375C85.3336 39.4261 85.7361 38.7917 86.0202 38.0341L89.2588 38.9432C88.9179 40.0417 88.345 41.0076 87.5401 41.8409C86.7351 42.6648 85.7408 43.3087 84.5571 43.7727C83.3734 44.2273 82.0429 44.4545 80.5656 44.4545Z" fill="#6C63FF"/>
<path d="M104.188 22.1818V25.0227H92.881V22.1818H104.188ZM96.1764 16.9545H99.5287V37.75C99.5287 38.697 99.666 39.4072 99.9406 39.8807C100.225 40.3447 100.585 40.6572 101.02 40.8182C101.465 40.9697 101.934 41.0455 102.426 41.0455C102.796 41.0455 103.099 41.0265 103.336 40.9886C103.572 40.9413 103.762 40.9034 103.904 40.875L104.586 43.8864C104.358 43.9716 104.041 44.0568 103.634 44.142C103.227 44.2367 102.711 44.2841 102.086 44.2841C101.139 44.2841 100.211 44.0805 99.3014 43.6733C98.4018 43.2661 97.6537 42.6458 97.0571 41.8125C96.47 40.9792 96.1764 39.928 96.1764 38.6591V16.9545Z" fill="#6C63FF"/>
<path d="M109.23 44V22.1818H112.469V25.4773H112.696C113.094 24.3977 113.814 23.5218 114.855 22.8494C115.897 22.1771 117.071 21.8409 118.378 21.8409C118.624 21.8409 118.932 21.8456 119.301 21.8551C119.671 21.8646 119.95 21.8788 120.14 21.8977V25.3068C120.026 25.2784 119.765 25.2358 119.358 25.179C118.961 25.1127 118.539 25.0795 118.094 25.0795C117.033 25.0795 116.086 25.3021 115.253 25.7472C114.429 26.1828 113.776 26.7888 113.293 27.5653C112.819 28.3324 112.583 29.2083 112.583 30.1932V44H109.23Z" fill="#6C63FF"/>
<path d="M132.597 44.4545C130.495 44.4545 128.681 43.9905 127.157 43.0625C125.641 42.125 124.472 40.8182 123.648 39.142C122.834 37.4564 122.426 35.4962 122.426 33.2614C122.426 31.0265 122.834 29.0568 123.648 27.3523C124.472 25.6383 125.618 24.303 127.086 23.3466C128.563 22.3807 130.286 21.8977 132.256 21.8977C133.392 21.8977 134.514 22.0871 135.622 22.4659C136.73 22.8447 137.739 23.4602 138.648 24.3125C139.557 25.1553 140.282 26.2727 140.821 27.6648C141.361 29.0568 141.631 30.7708 141.631 32.8068V34.2273H124.813V31.3295H138.222C138.222 30.0985 137.976 29 137.483 28.0341C137 27.0682 136.309 26.3059 135.409 25.7472C134.519 25.1884 133.468 24.9091 132.256 24.9091C130.921 24.9091 129.765 25.2405 128.79 25.9034C127.824 26.5568 127.081 27.4091 126.56 28.4602C126.039 29.5114 125.779 30.6383 125.779 31.8409V33.7727C125.779 35.4205 126.063 36.8172 126.631 37.9631C127.209 39.0994 128.009 39.9659 129.032 40.5625C130.054 41.1496 131.243 41.4432 132.597 41.4432C133.478 41.4432 134.273 41.3201 134.983 41.0739C135.703 40.8182 136.323 40.4394 136.844 39.9375C137.365 39.4261 137.767 38.7917 138.051 38.0341L141.29 38.9432C140.949 40.0417 140.376 41.0076 139.571 41.8409C138.766 42.6648 137.772 43.3087 136.588 43.7727C135.405 44.2273 134.074 44.4545 132.597 44.4545Z" fill="#6C63FF"/>
<path d="M155.878 44.4545C153.776 44.4545 151.962 43.9905 150.438 43.0625C148.923 42.125 147.753 40.8182 146.929 39.142C146.115 37.4564 145.708 35.4962 145.708 33.2614C145.708 31.0265 146.115 29.0568 146.929 27.3523C147.753 25.6383 148.899 24.303 150.367 23.3466C151.844 22.3807 153.568 21.8977 155.537 21.8977C156.674 21.8977 157.796 22.0871 158.904 22.4659C160.012 22.8447 161.02 23.4602 161.929 24.3125C162.838 25.1553 163.563 26.2727 164.103 27.6648C164.642 29.0568 164.912 30.7708 164.912 32.8068V34.2273H148.094V31.3295H161.503C161.503 30.0985 161.257 29 160.765 28.0341C160.282 27.0682 159.59 26.3059 158.691 25.7472C157.8 25.1884 156.749 24.9091 155.537 24.9091C154.202 24.9091 153.047 25.2405 152.071 25.9034C151.105 26.5568 150.362 27.4091 149.841 28.4602C149.32 29.5114 149.06 30.6383 149.06 31.8409V33.7727C149.06 35.4205 149.344 36.8172 149.912 37.9631C150.49 39.0994 151.29 39.9659 152.313 40.5625C153.336 41.1496 154.524 41.4432 155.878 41.4432C156.759 41.4432 157.554 41.3201 158.265 41.0739C158.984 40.8182 159.604 40.4394 160.125 39.9375C160.646 39.4261 161.049 38.7917 161.333 38.0341L164.571 38.9432C164.23 40.0417 163.657 41.0076 162.853 41.8409C162.048 42.6648 161.053 43.3087 159.87 43.7727C158.686 44.2273 157.355 44.4545 155.878 44.4545Z" fill="#6C63FF"/>
<path d="M187.189 22.1818L179.12 44H175.711L167.643 22.1818H171.279L177.302 39.5682H177.529L183.552 22.1818H187.189Z" fill="#6C63FF"/>
<path d="M197.37 44.5114C195.987 44.5114 194.732 44.2509 193.605 43.7301C192.479 43.1998 191.584 42.4375 190.921 41.4432C190.258 40.4394 189.926 39.2273 189.926 37.8068C189.926 36.5568 190.173 35.5436 190.665 34.767C191.157 33.9811 191.816 33.3655 192.64 32.9205C193.463 32.4754 194.372 32.1439 195.367 31.9261C196.371 31.6989 197.379 31.5189 198.392 31.3864C199.718 31.2159 200.793 31.0881 201.617 31.0028C202.45 30.9081 203.056 30.7519 203.435 30.5341C203.823 30.3163 204.017 29.9375 204.017 29.3977V29.2841C204.017 27.8826 203.634 26.7936 202.867 26.017C202.109 25.2405 200.959 24.8523 199.415 24.8523C197.815 24.8523 196.56 25.2027 195.651 25.9034C194.742 26.6042 194.103 27.3523 193.733 28.1477L190.551 27.0114C191.12 25.6856 191.877 24.6534 192.824 23.9148C193.781 23.1667 194.822 22.6458 195.949 22.3523C197.086 22.0492 198.203 21.8977 199.301 21.8977C200.002 21.8977 200.807 21.983 201.716 22.1534C202.635 22.3144 203.52 22.6506 204.372 23.1619C205.234 23.6733 205.949 24.4451 206.517 25.4773C207.086 26.5095 207.37 27.892 207.37 29.625V44H204.017V41.0455H203.847C203.62 41.5189 203.241 42.0256 202.711 42.5653C202.18 43.1051 201.475 43.5644 200.594 43.9432C199.713 44.322 198.639 44.5114 197.37 44.5114ZM197.881 41.5C199.207 41.5 200.324 41.2396 201.233 40.7188C202.152 40.1979 202.843 39.5256 203.307 38.7017C203.781 37.8778 204.017 37.0114 204.017 36.1023V33.0341C203.875 33.2045 203.563 33.3608 203.08 33.5028C202.606 33.6354 202.057 33.7538 201.432 33.858C200.817 33.9526 200.215 34.0379 199.628 34.1136C199.05 34.1799 198.582 34.2367 198.222 34.2841C197.351 34.3977 196.536 34.5824 195.779 34.8381C195.031 35.0843 194.425 35.4583 193.961 35.9602C193.506 36.4527 193.279 37.125 193.279 37.9773C193.279 39.142 193.71 40.0227 194.571 40.6193C195.443 41.2064 196.546 41.5 197.881 41.5Z" fill="#6C63FF"/>
<path d="M216.84 14.9091V44H213.488V14.9091H216.84Z" fill="#6C63FF"/>
</svg>
