<svg width="100" height="100" viewBox="0 0 100 100" fill="none" xmlns="http://www.w3.org/2000/svg">
<path fill-rule="evenodd" clip-rule="evenodd" d="M45.9101 0.161702C38.507 0.75006 29.8808 3.58821 23.5236 7.52686C15.9926 12.1929 9.58949 19.176 5.53944 27.1404C1.88677 34.3228 0.296693 40.4216 0.0289873 48.275C-0.537965 64.903 7.24244 80.8359 20.6657 90.5356C28.0587 95.8781 36.5553 99.0596 45.6531 99.8924C48.49 100.152 49.0639 100.038 52.8881 98.459C58.5006 96.1412 63.7441 92.3616 67.8436 87.6788L69.2824 86.0352L68.6452 85.6466C68.2947 85.4329 66.839 84.6466 65.4101 83.8992L62.8123 82.5401L60.5428 83.2387C57.6496 84.129 55.5564 84.5189 52.627 84.7129C46.5267 85.1168 40.2468 83.8539 34.7941 81.1268C31.1368 79.2975 29.089 77.8332 25.9816 74.8255C19.3807 68.4364 15.8924 60.6192 15.5949 51.5483C15.4685 47.6991 15.6842 45.4866 16.5204 42.0531C17.5118 37.9826 19.2425 34.1978 21.7217 30.6787C23.7148 27.8495 28.1486 23.5117 30.9187 21.6807C41.4963 14.6886 54.807 14.0931 66.3396 20.0959C76.1067 25.1795 83.5347 35.5806 86.0019 47.6279C88.2496 58.6039 86.2565 71.5795 80.7581 81.7672L79.9967 83.1779L81.2061 83.7973C83.4913 84.968 85.0317 85.7035 85.1978 85.7035C85.3695 85.7035 86.7269 84.2148 88.5656 82.0099C91.4853 78.5091 95.1381 72.1175 96.8035 67.5961C98.8031 62.1667 99.7791 57.1729 99.9714 51.3859C100.438 37.3392 95.172 24.1667 85.1144 14.2245C81.2832 10.437 77.5772 7.80588 72.5745 5.32101C70.8028 4.441 68.323 3.35606 67.0637 2.90964C60.3671 0.536376 53.0898 -0.408962 45.9101 0.161702ZM46.1698 30.1889C39.6855 31.3639 34.0243 35.8125 31.3015 41.8729C30.0996 44.5481 29.4371 48.4218 29.6577 51.4832C30.2902 60.2549 36.0269 67.3865 44.4498 69.8719C45.859 70.2878 46.7358 70.4072 48.9278 70.4819L51.6536 70.5748L54.1166 73.0132L56.5797 75.4516L58.4973 75.6999C62.5074 76.2191 67.2484 77.529 71.0849 79.1778C72.0276 79.583 72.8278 79.8826 72.8633 79.8439C73.1027 79.5806 74.5694 76.417 74.9769 75.2844L75.4726 73.9065L70.3287 68.7722C67.4996 65.9485 65.1849 63.5913 65.1849 63.5342C65.1849 63.477 65.5184 62.987 65.9263 62.4452C67.4941 60.361 69.1099 56.6094 69.6845 53.7191C69.8472 52.8994 69.9454 51.2755 69.9311 49.636C69.9115 47.3961 69.8204 46.5867 69.4164 45.0668C67.3666 37.3558 61.2701 31.6756 53.4545 30.195C51.5928 29.8423 48.0986 29.8393 46.1698 30.1889ZM75.8933 89.3974C75.7699 89.6278 75.1938 90.3756 74.6128 91.0594C74.032 91.7431 73.5568 92.3785 73.5568 92.4714C73.5568 92.5641 74.9954 94.0113 76.7536 95.6874L79.9505 98.7347L88.4303 98.6842L96.91 98.6334L94.4473 96.1544L91.9847 93.6753H90.7748C88.0425 93.6753 83.7136 92.4417 79.2029 90.3775C77.7573 89.7161 76.4717 89.1306 76.3462 89.0768C76.2204 89.0229 76.0167 89.1672 75.8933 89.3974Z" fill="#355DA1"/>
</svg>
