<svg width="200" height="200" viewBox="0 0 200 200" fill="none" xmlns="http://www.w3.org/2000/svg">
<path fill-rule="evenodd" clip-rule="evenodd" d="M91.8201 0.323404C77.0139 1.50012 59.7616 7.17643 47.0472 15.0537C31.9852 24.3858 19.179 38.352 11.0789 54.2808C3.77354 68.6456 0.593386 80.8432 0.0579747 96.55C-1.07593 129.806 14.4849 161.672 41.3314 181.071C56.1173 191.756 73.1107 198.119 91.3061 199.785C96.9799 200.304 98.1278 200.076 105.776 196.918C117.001 192.282 127.488 184.723 135.687 175.358L138.565 172.07L137.29 171.293C136.589 170.866 133.678 169.293 130.82 167.798L125.625 165.08L121.086 166.477C115.299 168.258 111.113 169.038 105.254 169.426C93.0533 170.234 80.4935 167.708 69.5883 162.254C62.2736 158.595 58.178 155.666 51.9633 149.651C38.7614 136.873 31.7847 121.238 31.1897 103.097C30.937 95.3982 31.3685 90.9732 33.0409 84.1062C35.0237 75.9652 38.4849 68.3955 43.4434 61.3574C47.4296 55.699 56.2972 47.0233 61.8375 43.3614C82.9926 29.3773 109.614 28.1862 132.679 40.1917C152.213 50.3591 167.069 71.1612 172.004 95.2558C176.499 117.208 172.513 143.159 161.516 163.534L159.993 166.356L162.412 167.595C166.983 169.936 170.063 171.407 170.396 171.407C170.739 171.407 173.454 168.43 177.131 164.02C182.971 157.018 190.276 144.235 193.607 135.192C197.606 124.333 199.558 114.346 199.943 102.772C200.877 74.6785 190.344 48.3334 170.229 28.4491C162.566 20.8739 155.154 15.6118 145.149 10.642C141.606 8.882 136.646 6.71212 134.127 5.81928C120.734 1.07275 106.18 -0.817924 91.8201 0.323404ZM92.3396 60.3779C79.3709 62.7278 68.0486 71.6251 62.603 83.7457C60.1993 89.0962 58.8742 96.8436 59.3154 102.966C60.5805 120.51 72.0539 134.773 88.8997 139.744C91.7181 140.576 93.4715 140.814 97.8557 140.964L103.307 141.15L108.233 146.026L113.159 150.903L116.995 151.4C125.015 152.438 134.497 155.058 142.17 158.356C144.055 159.166 145.656 159.765 145.727 159.688C146.205 159.161 149.139 152.834 149.954 150.569L150.945 147.813L140.657 137.544C134.999 131.897 130.37 127.183 130.37 127.068C130.37 126.954 131.037 125.974 131.853 124.89C134.988 120.722 138.22 113.219 139.369 107.438C139.694 105.799 139.891 102.551 139.862 99.2721C139.823 94.7923 139.641 93.1734 138.833 90.1337C134.733 74.7115 122.54 63.3511 106.909 60.3899C103.186 59.6845 96.1972 59.6787 92.3396 60.3779ZM151.787 178.795C151.54 179.256 150.388 180.751 149.226 182.119C148.064 183.486 147.114 184.757 147.114 184.943C147.114 185.128 149.991 188.023 153.507 191.375L159.901 197.469L176.861 197.368L193.82 197.267L188.895 192.309L183.969 187.351H181.55C176.085 187.351 167.427 184.883 158.406 180.755C155.515 179.432 152.943 178.261 152.692 178.154C152.441 178.046 152.033 178.334 151.787 178.795Z" fill="#355DA1"/>
</svg>
