<?xml version='1.0' encoding='utf-8'?>
<svg xmlns="http://www.w3.org/2000/svg" version="1.1" id="Layer_1" x="0px" y="0px" viewBox="0 0 576 576" style="enable-background:new 0 0 576 576;"> <style type="text/css"> .st0{fill:#0069B5;} .st1{fill:none;stroke:#000000;stroke-width:0.9722;} .st2{fill:none;stroke:#000000;stroke-width:0.5735;} .st3{fill:#00A2E5;} .st4{fill:none;stroke:#000000;stroke-width:0.9726;} </style> <g> <path class="st0" d="M262.3,210.8L57.6,232.3c-9.8,1-18.7-6.2-19.8-16l-13-124c-1-9.8,6.2-18.7,16-19.8L245.5,51 c9.8-1,18.7,6.2,19.8,16l13,124C279.3,200.9,272.1,209.8,262.3,210.8z"/> <path class="st1" d="M255.6,219.2H86.4l-53,46.7l15.4-46.7c-9.6,0-17.5-7.9-17.5-17.5V76.1c0-9.6,7.9-17.5,17.5-17.5h206.8 c9.6,0,17.5,7.9,17.5,17.5v125.6C273.1,211.3,265.3,219.2,255.6,219.2z"/> <line class="st2" x1="283.4" y1="28" x2="270.5" y2="47.3"/> <line class="st2" x1="303.1" y1="46.6" x2="283.6" y2="59"/> <line class="st2" x1="307.9" y1="78.4" x2="284.9" y2="75.8"/> </g> <g> <line class="st2" x1="292.9" y1="290.7" x2="303.6" y2="311.2"/> <line class="st2" x1="271.2" y1="306.9" x2="289.2" y2="321.5"/> <line class="st2" x1="262.8" y1="338" x2="286" y2="338"/> </g> <path class="st3" d="M377.4,310.9l112.6,21.9c38.5,7.5,63,48.4,54.6,91.4c-8.4,43-46.3,71.7-84.9,64.2c0,0-80.9-14.6-112.4-20.7 c-29.3-5.7-44.8-30.8-50.1-43.4c-6.1-14.6-8.1-31.7-4.8-49.1C301,332.2,338.9,303.4,377.4,310.9z"/> <path class="st4" d="M358.7,319.1h114.7c39.2,0,71,35.5,71,79.3c0,26.7-11.9,50.4-30,64.7c-5.1,4,19.4,57.4,19.4,57.4 s-51.8-42.9-60.4-42.9c0,0-82.2,1.1-114.3,1.1c-29.9,0-49.9-21.7-57.5-33.1c-8.8-13.2-14-29.6-14-47.3 C287.6,354.5,319.4,319.1,358.7,319.1z"/> </svg>